<?xml version="1.0" standalone="no"?><svg xmlns="http://www.w3.org/2000/svg" viewBox="0 0 1440 320"><path fill="#F5DCE0" fill-opacity="1" d="M0,256L24,250.7C48,245,96,235,144,197.3C192,160,240,96,288,85.3C336,75,384,117,432,133.3C480,149,528,139,576,112C624,85,672,43,720,26.7C768,11,816,21,864,32C912,43,960,53,1008,58.7C1056,64,1104,64,1152,69.3C1200,75,1248,85,1296,90.7C1344,96,1392,96,1416,96L1440,96L1440,0L1416,0C1392,0,1344,0,1296,0C1248,0,1200,0,1152,0C1104,0,1056,0,1008,0C960,0,912,0,864,0C816,0,768,0,720,0C672,0,624,0,576,0C528,0,480,0,432,0C384,0,336,0,288,0C240,0,192,0,144,0C96,0,48,0,24,0L0,0Z"></path></svg>